<svg width="73" height="68" viewBox="0 0 73 68" fill="none" xmlns="http://www.w3.org/2000/svg">
<path fill-rule="evenodd" clip-rule="evenodd" d="M37.8816 7.95596C45.6558 6.5017 53.0004 -2.25552 60.1209 1.18712C66.9619 4.49464 65.2109 15.0218 67.4893 22.2708C69.4471 28.4998 73.2988 34.2909 72.5646 40.7789C71.821 47.3504 68.2245 53.3708 63.4521 57.9492C58.9142 62.3025 52.8182 64.4372 46.6466 65.643C40.885 66.7687 35.2922 64.7453 29.4236 64.5975C20.9986 64.3852 10.6175 70.5388 4.65274 64.5852C-1.15313 58.7901 5.86547 48.663 5.26309 40.4821C4.71947 33.0993 -1.87622 25.7726 1.30259 19.0872C4.48661 12.3907 13.3218 10.7731 20.4155 8.61447C26.1045 6.88327 32.0364 9.04937 37.8816 7.95596Z" fill="#FFD1D7"/>
</svg>
