<svg width="26" height="25" viewBox="0 0 26 25" fill="none" xmlns="http://www.w3.org/2000/svg">
<path d="M13.0927 8.24054C10.8198 8.24054 8.96492 10.0954 8.96492 12.3683C8.96492 14.6412 10.8198 16.4961 13.0927 16.4961C15.3656 16.4961 17.2205 14.6412 17.2205 12.3683C17.2205 10.0954 15.3656 8.24054 13.0927 8.24054ZM25.473 12.3683C25.473 10.659 25.4885 8.96515 25.3925 7.25892C25.2965 5.27708 24.8444 3.5182 23.3952 2.06899C21.9428 0.616672 20.1871 0.167663 18.2052 0.0716674C16.4959 -0.0243277 14.802 -0.00884455 13.0958 -0.00884455C11.3865 -0.00884455 9.69263 -0.0243277 7.98639 0.0716674C6.00456 0.167663 4.24568 0.619769 2.79646 2.06899C1.34415 3.5213 0.895141 5.27708 0.799145 7.25892C0.70315 8.96825 0.718633 10.6621 0.718633 12.3683C0.718633 14.0746 0.70315 15.7715 0.799145 17.4778C0.895141 19.4596 1.34725 21.2185 2.79646 22.6677C4.24878 24.12 6.00456 24.569 7.98639 24.665C9.69573 24.761 11.3896 24.7455 13.0958 24.7455C14.8051 24.7455 16.499 24.761 18.2052 24.665C20.1871 24.569 21.9459 24.1169 23.3952 22.6677C24.8475 21.2154 25.2965 19.4596 25.3925 17.4778C25.4916 15.7715 25.473 14.0777 25.473 12.3683ZM13.0927 18.7195C9.57805 18.7195 6.74155 15.883 6.74155 12.3683C6.74155 8.85367 9.57805 6.01717 13.0927 6.01717C16.6074 6.01717 19.4439 8.85367 19.4439 12.3683C19.4439 15.883 16.6074 18.7195 13.0927 18.7195ZM19.704 7.24034C18.8834 7.24034 18.2207 6.57766 18.2207 5.75706C18.2207 4.93645 18.8834 4.27378 19.704 4.27378C20.5246 4.27378 21.1873 4.93645 21.1873 5.75706C21.1875 5.95191 21.1493 6.1449 21.0749 6.32497C21.0004 6.50504 20.8912 6.66865 20.7534 6.80644C20.6156 6.94422 20.452 7.05347 20.2719 7.12793C20.0918 7.20238 19.8989 7.24058 19.704 7.24034Z" fill="#665F5F"/>
</svg>
