<svg width="28" height="43" viewBox="0 0 28 43" fill="none" xmlns="http://www.w3.org/2000/svg">
<path d="M27.49 16.3615C27.7531 15.3787 27.8856 14.3703 27.8846 13.3583C27.9419 11.6536 27.6251 9.95564 26.9531 8.36527C26.2811 6.7749 25.2675 5.32447 23.9725 4.10004C22.6775 2.87562 21.1275 1.90211 19.4144 1.23732C17.7013 0.57253 15.86 0.22998 13.9997 0.22998C12.1395 0.22998 10.2983 0.57253 8.58519 1.23732C6.87208 1.90211 5.322 2.87562 4.02701 4.10004C2.73202 5.32447 1.71849 6.7749 1.04646 8.36527C0.374438 9.95564 0.0576158 11.6536 0.114854 13.3583C0.113915 14.3703 0.246408 15.3787 0.509482 16.3615C0.765141 18.0693 1.27415 19.7371 2.02232 21.3186C3.3378 23.9479 9.12587 32.6198 11.77 36.5758C8.20504 36.9858 6.50807 38.397 6.50807 39.7237C6.50807 41.2916 8.83651 42.9922 13.9537 42.9922C19.0709 42.9922 21.4125 41.2916 21.4125 39.7237C21.4125 38.397 19.755 36.9858 16.1506 36.5758C18.7815 32.6198 24.5302 23.9479 25.8983 21.3186C26.6736 19.7407 27.2091 18.0728 27.49 16.3615ZM19.3077 39.7237C19.163 40.0976 17.3608 41.0263 14.0458 41.0263C10.7308 41.0263 8.84968 40.0734 8.7839 39.7357C8.87599 39.4101 10.3361 38.602 13.1118 38.4452L13.1776 38.5538C13.2768 38.6931 13.4124 38.8076 13.572 38.8868C13.7317 38.9661 13.9103 39.0075 14.0918 39.0075C14.2734 39.0075 14.4521 38.9661 14.6117 38.8868C14.7713 38.8076 14.9069 38.6931 15.0061 38.5538V38.4452C17.716 38.602 19.1762 39.4342 19.3077 39.7237ZM25.3984 15.9273C25.3984 15.9273 25.3984 15.9273 25.3984 16.0118C25.1707 17.5449 24.7286 19.0448 24.0829 20.4743C22.7675 23.1278 16.4137 32.5957 14.0327 36.1537C11.6648 32.5957 5.37679 23.1278 3.99554 20.4743C3.34375 19.0467 2.9014 17.5461 2.68006 16.0118C2.68006 16.0118 2.68006 16.0118 2.68006 15.9394C2.45552 15.0944 2.3407 14.228 2.33802 13.3583C2.32891 11.8297 2.67481 10.3168 3.35273 8.92025C4.03065 7.52367 5.02508 6.27535 6.26985 5.25837C7.51462 4.24138 8.98123 3.47901 10.5722 3.02189C12.1632 2.56476 13.8421 2.42338 15.4972 2.60714C17.1524 2.7909 18.746 3.2956 20.172 4.08768C21.598 4.87976 22.8238 5.94106 23.7678 7.20106C24.7118 8.46105 25.3526 9.8909 25.6473 11.3955C25.9421 12.9 25.8841 14.4449 25.4774 15.9273H25.3984Z" fill="#665F5F"/>
<path d="M13.9931 6.19434C12.5179 6.19434 11.0758 6.59541 9.84923 7.34685C8.62264 8.09828 7.6667 9.16632 7.10217 10.4159C6.53763 11.6655 6.38987 13.0405 6.67767 14.3671C6.96547 15.6937 7.67585 16.9122 8.71898 17.8686C9.76211 18.825 11.0911 19.4763 12.538 19.7401C13.9849 20.004 15.4846 19.8685 16.8475 19.3509C18.2104 18.8334 19.3753 17.9568 20.1949 16.8322C21.0145 15.7076 21.4519 14.3855 21.4519 13.0329C21.4519 11.2192 20.6661 9.4798 19.2673 8.19731C17.8685 6.91483 15.9713 6.19434 13.9931 6.19434ZM13.9931 17.8935C12.9524 17.8935 11.9351 17.6106 11.0698 17.0805C10.2045 16.5503 9.53001 15.7968 9.13175 14.9153C8.73349 14.0338 8.62932 13.0637 8.83235 12.1279C9.03538 11.192 9.53647 10.3325 10.2724 9.65775C11.0083 8.98305 11.9459 8.52355 12.9666 8.3374C13.9873 8.15125 15.0453 8.24676 16.0068 8.61191C16.9683 8.97706 17.7901 9.59545 18.3683 10.3888C18.9465 11.1822 19.255 12.1149 19.255 13.0691C19.255 14.3486 18.7006 15.5757 17.7138 16.4805C16.727 17.3852 15.3887 17.8935 13.9931 17.8935Z" fill="#665F5F"/>
</svg>
