<svg width="25" height="25" viewBox="0 0 25 25" fill="none" xmlns="http://www.w3.org/2000/svg">
<path d="M20.1812 -0.00976562C21.4599 -0.00976562 22.5532 0.444211 23.4611 1.35217C24.3691 2.26012 24.8231 3.35343 24.8231 4.63208V20.1049C24.8231 21.3836 24.3691 22.4769 23.4611 23.3848C22.5532 24.2928 21.4599 24.7468 20.1812 24.7468H8.496C9.40932 23.4359 9.98955 22.3076 10.2367 21.3621C10.3334 20.9967 10.6181 19.8739 11.0909 17.9935C11.3166 18.4126 11.7114 18.7725 12.2756 19.0734C12.8397 19.3743 13.4441 19.5247 14.0888 19.5247C16.0336 19.5247 17.6212 18.7322 18.8515 17.1473C20.0818 15.5625 20.697 13.5558 20.697 11.1274C20.697 10.2249 20.5089 9.35183 20.1329 8.50835C19.7568 7.66487 19.2383 6.91809 18.5775 6.26801C17.9167 5.61794 17.0974 5.09681 16.1196 4.70461C15.1418 4.31242 14.0834 4.11632 12.9444 4.11632C11.827 4.11632 10.782 4.26944 9.80958 4.57567C8.83715 4.8819 8.01516 5.2929 7.34359 5.80866C6.67203 6.32442 6.09448 6.91271 5.61096 7.57353C5.12743 8.23435 4.77016 8.92203 4.53914 9.63658C4.30813 10.3511 4.19262 11.063 4.19262 11.7721C4.19262 12.8681 4.40483 13.8352 4.82926 14.6733C5.25369 15.5114 5.87958 16.1024 6.70695 16.4462C6.84664 16.5 6.97289 16.5 7.08571 16.4462C7.19854 16.3925 7.27644 16.2904 7.31942 16.14C7.42687 15.6672 7.50745 15.3395 7.56118 15.1568C7.62565 14.9097 7.56655 14.684 7.38389 14.4799C6.84664 13.8137 6.57801 13.0078 6.57801 12.0623C6.57801 10.4505 7.13407 9.07246 8.24617 7.92812C9.35828 6.78377 10.8115 6.2116 12.606 6.2116C14.207 6.2116 15.4561 6.64677 16.3533 7.51712C17.2505 8.38747 17.6991 9.51569 17.6991 10.9018C17.6991 12.707 17.3365 14.2435 16.6112 15.5114C15.8859 16.7793 14.9538 17.4133 13.8148 17.4133C13.1701 17.4133 12.6489 17.1796 12.2514 16.7122C11.8538 16.2448 11.7302 15.6887 11.8807 15.044C11.9666 14.6787 12.109 14.1817 12.3078 13.5531C12.5066 12.9246 12.6651 12.3766 12.7833 11.9091C12.9015 11.4417 12.9606 11.0415 12.9606 10.7084C12.9606 10.1819 12.8182 9.74403 12.5334 9.39481C12.2487 9.0456 11.8431 8.87099 11.3166 8.87099C10.6611 8.87099 10.1051 9.17454 9.6484 9.78163C9.19174 10.3887 8.9634 11.1382 8.9634 12.03C8.9634 12.8037 9.09235 13.4537 9.35023 13.9803L7.77071 20.6529C7.51283 21.7274 7.47522 23.092 7.65789 24.7468H4.70838C3.42972 24.7468 2.33641 24.2928 1.42846 23.3848C0.520505 22.4769 0.0665283 21.3836 0.0665283 20.1049V4.63208C0.0665283 3.35343 0.520505 2.26012 1.42846 1.35217C2.33641 0.444211 3.42972 -0.00976562 4.70838 -0.00976562H20.1812Z" fill="#665F5F"/>
</svg>
