<svg width="65" height="65" viewBox="0 0 65 65" fill="none" xmlns="http://www.w3.org/2000/svg">
<path d="M44.0847 28.5383L28.3354 44.1377L20.9063 36.7811" stroke="#665F5F" stroke-width="2" stroke-linecap="round" stroke-linejoin="round"/>
<path d="M32.7438 63.3858C47.9759 63.3858 60.3239 51.1554 60.3239 36.0684C60.3239 20.9814 47.9759 8.75098 32.7438 8.75098C17.5118 8.75098 5.16382 20.9814 5.16382 36.0684C5.16382 51.1554 17.5118 63.3858 32.7438 63.3858Z" stroke="#665F5F" stroke-width="2" stroke-linecap="round" stroke-linejoin="round"/>
<path d="M32.9598 57.0551C44.7013 57.0551 54.2197 47.6273 54.2197 35.9976C54.2197 24.3679 44.7013 14.9402 32.9598 14.9402C21.2183 14.9402 11.7 24.3679 11.7 35.9976C11.7 47.6273 21.2183 57.0551 32.9598 57.0551Z" stroke="#665F5F" stroke-width="2" stroke-linecap="round" stroke-linejoin="round"/>
<path d="M59.2201 18.0464L63.5214 13.2453L49.3385 1.38574L45.1647 6.29466L59.2201 18.0464ZM6.07718 18.0464L1.77588 13.2453L15.9571 1.38574L20.1325 6.29466L6.07718 18.0464Z" stroke="#665F5F" stroke-width="2" stroke-linecap="round" stroke-linejoin="round"/>
</svg>
